{"title":"The Gate 1987 DVDRip Xvid BigPerm LKRG","uid":6872170,"size":834624960,"categoryP":"video","categoryS":"movies","magnet":"?xt=urn:btih:e1951aedce62877f94f7f0ac1863e6f9819a429d&amp;dn=The+Gate+1987+DVDRip+Xvid+BigPerm+LKRG&amp;tr=udp%3A%2F%2Ftracker.openbittorrent.com%3A80&amp;tr=udp%3A%2F%2Fopen.demonii.com%3A1337&amp;tr=udp%3A%2F%2Ftracker.coppersurfer.tk%3A6969&amp;tr=udp%3A%2F%2Fexodus.desync.com%3A6969","seeders":5,"leechers":0,"uploader":".BONE.","files":2,"time":1323308413,"description":"PLOT\n\nThree young children accidentally release a horde of nasty, pint-sized demons from a hole in a\nsuburban backyard. What follows is a classic battle between good and evil as the three kids struggle to overcome a\nnightmarish hell that is literally taking over the Earth.\n &lt;a href=&quot;\nhttp://www.imdb.com/title/tt0093075/&quot; rel=&quot;nofollow&quot; target=&quot;_NEW&quot;&gt;\nhttp://www.imdb.com/title/tt0093075/&lt;/a&gt;\n\nEncoded By .......: BigPerm\nRuntime ..........: 1h 25mn\nFile Size ........: 796 MB\nResolution .......: 656 x 352\nIMDb URL .........: http://www.imdb.com/title/tt0093075/\nSource ...........: DVD\nGenre ............: Fantasy,Horror\nLanguage .........: English\nSubtitles ........: None\nVideo\nID : 0\nFormat : MPEG-4 Visual\nFormat profile : Advanced Simple@L5\nFormat settings, BVOP : Yes\nFormat settings, QPel : No\nFormat settings, GMC : No warppoints\nFormat settings, Matrix : Default (H.263)\nMuxing mode : Packed bitstream\nCodec ID : XVID\nCodec ID/Hint : XviD\nDuration : 1h 25mn\nBit rate : 837 Kbps\nWidth : 656 pixels\nHeight : 352 pixels\nDisplay aspect ratio : 1.864\nFrame rate : 23.976 fps\nColor space : YUV\nChroma subsampling : 4:2:0\nBit depth : 8 bits\nScan type : Progressive\nCompression mode : Lossy\nBits/(Pixel*Frame) : 0.151\nStream size : 515 MiB (65%)\nWriting library : XviD 1.2.1 (UTC 2008-12-04)\nAudio\nID : 1\nFormat : AC-3\nFormat/Info : Audio Coding 3\nMode extension : CM (complete main)\nCodec ID : 2000\nDuration : 1h 25mn\nBit rate mode : Constant\nBit rate : 448 Kbps\nChannel(s) : 2 channels\nChannel positions : Front: L R\nSampling rate : 48.0 KHz\nBit depth : 16 bits\nCompression mode : Lossy\nStream size : 275 MiB (35%)\nAlignment : Split accross interleaves\nInterleave, duration : 42 ms (1.00 video frame)\nInterleave, preload duration : 500 ms","torrent":{"xt":"urn:btih:e1951aedce62877f94f7f0ac1863e6f9819a429d","amp;dn":"The+Gate+1987+DVDRip+Xvid+BigPerm+LKRG","amp;tr":["udp%3A%2F%2Ftracker.openbittorrent.com%3A80","udp%3A%2F%2Fopen.demonii.com%3A1337","udp%3A%2F%2Ftracker.coppersurfer.tk%3A6969","udp%3A%2F%2Fexodus.desync.com%3A6969"],"infoHash":"e1951aedce62877f94f7f0ac1863e6f9819a429d","infoHashBuffer":{"type":"Buffer","data":[225,149,26,237,206,98,135,127,148,247,240,172,24,99,230,249,129,154,66,157]},"announce":[],"urlList":[]}}